# xmcd
#
# Track frame offsets:
# 150
# 14385
# 33598
# 54163
# 68610
# 72908
# 83143
# 101578
# 105360
# 122693
# 126168
# 141258
# 160740
#
# Disc length: 2370 seconds
#
#
# Revision: 0
# Processed by: cddbd v1.5.1PL2 Copyright (c) Steve Scherf et al.
# Submitted via: FreeRIP 2.944 
#
DISCID=a509400d
DTITLE=Edison's Revenge - Bloody Harlan
DYEAR=1990
DGENRE=Bluegrass
TTITLE0=Five Faces
TTITLE1=Little Left
TTITLE2=Back To You
TTITLE3=These Boots Are Made For Walkin'
TTITLE4=Immigrant Camp
TTITLE5=Ashes And Dust
TTITLE6=Bloody Harlan
TTITLE7=Better World
TTITLE8=Union Made
TTITLE9=Instrumental
TTITLE10=Not So Long Ago
TTITLE11=Silent Lies
TTITLE12=Saying Grace
EXTD=One World Records 1990
EXTT0=
EXTT1=
EXTT2=
EXTT3=
EXTT4=
EXTT5=
EXTT6=
EXTT7=
EXTT8=
EXTT9=
EXTT10=
EXTT11=
EXTT12=
PLAYORDER=
